<svg xmlns="http://www.w3.org/2000/svg" xmlns:xlink="http://www.w3.org/1999/xlink" width="16" height="16" viewBox="0 0 16 16">
  <defs>
    <clipPath id="clip-path">
      <circle id="Ellipse_11" data-name="Ellipse 11" cx="8" cy="8" r="8" transform="translate(-965 250)" fill="#fff"/>
    </clipPath>
    <radialGradient id="radial-gradient" cx="0.5" cy="0.5" r="0.5" gradientUnits="objectBoundingBox">
      <stop offset="0" stop-color="#5169ad"/>
      <stop offset="1" stop-color="#073281"/>
    </radialGradient>
  </defs>
  <g id="Mask_Group_2" data-name="Mask Group 2" transform="translate(965 -250)" clip-path="url(#clip-path)">
    <circle id="Ellipse_10" data-name="Ellipse 10" cx="8" cy="8" r="8" transform="translate(-965 250)" fill="rgba(255,255,255,0.56)"/>
    <g id="Component_1_8" data-name="Component 1 – 8" transform="translate(-962.492 251.804)">
      <path id="Exclusion_10" data-name="Exclusion 10" d="M7.713,12.273h0a5.131,5.131,0,0,0-.972-.633,5.874,5.874,0,0,0-1.1-.436,5.233,5.233,0,0,0-1.413-.2,5.257,5.257,0,0,0-2.385.588v0a25.57,25.57,0,0,0-.293-2.846A16.694,16.694,0,0,0,.992,6.338,6.558,6.558,0,0,0,0,4.3a3.636,3.636,0,0,1,.664-.83A3.206,3.206,0,0,1,1.491,2.9,2.7,2.7,0,0,1,2.648,2.64a4.5,4.5,0,0,1,2.772,1.2,1.849,1.849,0,0,0-.034.376,7.237,7.237,0,0,0,.11,1.273A18.649,18.649,0,0,0,6.07,7.875c.337,1.112.795,2.364,1.36,3.719-.229-.824-.452-1.572-.669-2.3l-.007-.024v0c-.756-2.529-1.3-4.356-.941-5.8a3.131,3.131,0,0,1,.454-1.016,3.97,3.97,0,0,1,.862-.9A7.4,7.4,0,0,1,8.465.747,15.717,15.717,0,0,1,10.341,0V0c-.017.064-.106.413-.2.935a19.893,19.893,0,0,0-.3,2.314A14,14,0,0,0,9.924,6.19,7.372,7.372,0,0,0,10.872,9h0a4.483,4.483,0,0,0-.458.153,5.585,5.585,0,0,0-1.032.528,4.05,4.05,0,0,0-1.075,1,3.163,3.163,0,0,0-.591,1.584ZM4.975,2.63a1.2,1.2,0,0,1-.861-.364,1.263,1.263,0,0,1,0-1.758,1.2,1.2,0,0,1,1.721,0,1.262,1.262,0,0,1,0,1.758A1.2,1.2,0,0,1,4.975,2.63Z" transform="translate(0 0.014)" fill="url(#radial-gradient)"/>
      <g id="light_shade_in_V" data-name="light shade in V" transform="translate(0.015)">
        <path id="Union_5" data-name="Union 5" d="M7.429,11.606C5.58,4.893,3.684,2.231,10.321,0c0,0-3.76,2.8-2.74,12.085,0,0-2.819-7.215-7.582-7.789,0,0,1.827-3.4,5.405-.45,0,0-.441,1.811,2.024,7.759" transform="translate(0)" fill="#ffd631"/>
      </g>
    </g>
  </g>
</svg>
