<svg xmlns="http://www.w3.org/2000/svg" xmlns:xlink="http://www.w3.org/1999/xlink" width="8" height="9.038" viewBox="0 0 8 9.038">
  <defs>
    <style>
      .cls-1 {
        fill: #fff;
      }

      .cls-2 {
        clip-path: url(#clip-path);
      }
    </style>
    <clipPath id="clip-path">
      <path id="Path_30" data-name="Path 30" class="cls-1" d="M5.675,9.038a3.782,3.782,0,0,0-.715-.466,4.321,4.321,0,0,0-.811-.321A3.847,3.847,0,0,0,3.109,8.1a3.866,3.866,0,0,0-1.755.433,18.744,18.744,0,0,0-.216-2.1A12.3,12.3,0,0,0,.73,4.667,4.831,4.831,0,0,0,0,3.167a2.709,2.709,0,0,1,.488-.611,2.359,2.359,0,0,1,.609-.42,1.982,1.982,0,0,1,.851-.191,3.312,3.312,0,0,1,2.039.883,1.374,1.374,0,0,0-.025.277,5.335,5.335,0,0,0,.081.938A13.744,13.744,0,0,0,4.467,5.8c.248.819.585,1.74,1,2.739-.17-.614-.337-1.17-.5-1.708-.557-1.863-.959-3.209-.692-4.274a2.308,2.308,0,0,1,.334-.748,2.923,2.923,0,0,1,.634-.662,5.447,5.447,0,0,1,.983-.6A11.559,11.559,0,0,1,7.609,0s-.071.267-.151.691a14.672,14.672,0,0,0-.219,1.7A10.315,10.315,0,0,0,7.3,4.559,5.432,5.432,0,0,0,8,6.629a3.189,3.189,0,0,0-.339.113,4.113,4.113,0,0,0-.759.389,2.982,2.982,0,0,0-.791.74,2.331,2.331,0,0,0-.435,1.167ZM3.028,1.668a.931.931,0,0,1,0-1.3.882.882,0,0,1,1.267,0,.93.93,0,0,1,0,1.3.882.882,0,0,1-1.267,0Z" transform="translate(-2138.005 -2350.235)"/>
    </clipPath>
  </defs>
  <g id="Mask_Group_9" data-name="Mask Group 9" class="cls-2" transform="translate(2138.005 2350.235)">
    <circle id="Ellipse_32" data-name="Ellipse 32" class="cls-1" cx="8" cy="8" r="8" transform="translate(-2142 -2354)"/>
  </g>
</svg>
