<svg xmlns="http://www.w3.org/2000/svg" width="34.655" height="39.151" viewBox="0 0 34.655 39.151"><defs><style>.a{fill:#fff;}</style></defs><path class="a" d="M24.583,39.151a16.385,16.385,0,0,0-3.1-2.021,18.719,18.719,0,0,0-3.514-1.39,16.666,16.666,0,0,0-4.5-.632,16.746,16.746,0,0,0-7.6,1.876A81.2,81.2,0,0,0,4.929,27.9a53.29,53.29,0,0,0-1.766-7.68A20.928,20.928,0,0,0,0,13.719,11.734,11.734,0,0,1,2.116,11.07,10.219,10.219,0,0,1,4.754,9.249a8.587,8.587,0,0,1,3.686-.827c2.762,0,5.735,1.286,8.834,3.823a5.953,5.953,0,0,0-.11,1.2,23.109,23.109,0,0,0,.351,4.062,59.535,59.535,0,0,0,1.833,7.616c1.075,3.548,2.534,7.539,4.336,11.863-.737-2.658-1.458-5.069-2.155-7.4-2.412-8.069-4.155-13.9-3-18.513A10,10,0,0,1,19.976,7.83a12.66,12.66,0,0,1,2.747-2.867,23.6,23.6,0,0,1,4.258-2.579A50.073,50.073,0,0,1,32.962,0c0,.008-.307,1.156-.653,2.993a63.555,63.555,0,0,0-.949,7.381,44.684,44.684,0,0,0,.275,9.373,23.532,23.532,0,0,0,3.02,8.97,13.816,13.816,0,0,0-1.47.49A17.815,17.815,0,0,0,29.9,30.891,12.916,12.916,0,0,0,26.468,34.1a10.1,10.1,0,0,0-1.884,5.054ZM13.115,7.227a4.031,4.031,0,0,1,0-5.61,3.819,3.819,0,0,1,5.486,0,4.029,4.029,0,0,1,0,5.61,3.819,3.819,0,0,1-5.486,0Z"/></svg>