<svg id="Component_1_7" data-name="Component 1 – 7" xmlns="http://www.w3.org/2000/svg" xmlns:xlink="http://www.w3.org/1999/xlink" width="322.691" height="157.914" viewBox="0 0 322.691 157.914">
  <defs>
    <linearGradient id="linear-gradient" x1="0.5" x2="0.5" y2="1" gradientUnits="objectBoundingBox">
      <stop offset="0" stop-color="#c6337b"/>
      <stop offset="1" stop-color="#6f1f47"/>
    </linearGradient>
  </defs>
  <path id="Exclusion_10" data-name="Exclusion 10" d="M101.394,206.1h0a67.5,67.5,0,0,0-12.78-8.151,78.387,78.387,0,0,0-14.494-5.6,68.829,68.829,0,0,0-49.936,5.023v-.029a319.076,319.076,0,0,0-3.851-36.629,211.05,211.05,0,0,0-7.283-30.976C9.4,118.585,5.013,109.766,0,103.519A47.838,47.838,0,0,1,8.725,92.837a42.278,42.278,0,0,1,10.881-7.343,36.078,36.078,0,0,1,15.2-3.338c11.391,0,23.649,5.188,36.436,15.42a23.481,23.481,0,0,0-.453,4.84A91.435,91.435,0,0,0,72.238,118.8,235.3,235.3,0,0,0,79.8,149.516a504.648,504.648,0,0,0,17.883,47.85c-3.05-10.763-6.014-20.458-8.881-29.834l0-.016,0-.005c-9.948-32.545-17.135-56.059-12.37-74.666A39.976,39.976,0,0,1,82.39,79.766,51.564,51.564,0,0,1,93.72,68.2,97.66,97.66,0,0,1,111.282,57.8a209.775,209.775,0,0,1,24.665-9.611l0,.016c-.222.831-1.393,5.318-2.694,12.054a251.37,251.37,0,0,0-3.915,29.77c-.322,4.692-.491,9.327-.5,13.778a5.238,5.238,0,0,0-.5.338,4.391,4.391,0,0,0-.061,6.773,5.387,5.387,0,0,0,.7.467c-.1-2.494-.143-5.043-.137-7.578a7.33,7.33,0,0,1,3.791-.9,10.2,10.2,0,0,1,3.981.772v-.561h3.618v4.662H136.6c-.312-1.115-1.483-1.68-3.481-1.68-1.436,0-2.164.408-2.164,1.211a.84.84,0,0,0,.575.787,6.8,6.8,0,0,0,1.68.423,20.013,20.013,0,0,1,4.889,1.128,5.308,5.308,0,0,1,2.5,1.817,4.694,4.694,0,0,1,.712,2.626A4.784,4.784,0,0,1,139.594,118a7.209,7.209,0,0,1-4.67,1.4c-1.909,0-3.223-.387-3.905-1.15v.772h-1.575c.258,3,.6,5.965,1.028,8.812a113.2,113.2,0,0,0,4.113,17.94,9.871,9.871,0,0,0-4.226,1.072,6.053,6.053,0,0,0-2.55,2.658l4.087.742a4.037,4.037,0,0,1,2.921-1.271,5,5,0,0,1,.886.074c-.4-1.1-.776-2.205-1.12-3.274.311-.017.618-.024.914-.024,2.651,0,4.568.553,5.7,1.643a6.8,6.8,0,0,1,1.7,5.079v5.888h2.574v3.663H141.72c.386.661.792,1.333,1.208,2l-.021.005a58.258,58.258,0,0,0-6.041,1.966,74.418,74.418,0,0,0-13.567,6.793,52.812,52.812,0,0,0-14.134,12.931,40.172,40.172,0,0,0-7.771,20.385Zm32.8-54.159a7.145,7.145,0,0,0-4.685,1.461,4.809,4.809,0,0,0-1.763,3.883,4.554,4.554,0,0,0,1.574,3.633,6.259,6.259,0,0,0,4.193,1.346,7.645,7.645,0,0,0,4.329-1.483v1.241h3.875a77.686,77.686,0,0,1-4.665-9.483c.256.111.522.236.789.372v-1.272a2.57,2.57,0,0,0-.757-1.938,2.626,2.626,0,0,0-1.384-.652c.424,1.168.878,2.342,1.352,3.49a8.281,8.281,0,0,0-1.049-.378A6.823,6.823,0,0,0,134.2,151.941Zm-19.224,6.206v3.874h11.5v-3.874h-2.951V143.086h2.951v-3.874H114.822l-5.055,13.351-5-13.351H93.3v3.874h2.982v15.062H93.3v3.874h9.642v-3.874H100V143.086h.529l7.16,18.936h2.437l7.069-18.936h.529v15.062Zm-22.6-61.936v3.875H95.1l6.8,19.057H106.6l6.569-19.057h2.755V96.211H105.861v3.875h2.876l-3.845,11.4-3.845-11.4H104V96.211Zm34.951,17.331v5.48h2.119c-.156-1.819-.283-3.663-.376-5.48h1.951a2.488,2.488,0,0,0,1.1,1.786,4.049,4.049,0,0,0,2.339.651,4.949,4.949,0,0,0,2.013-.311,1.105,1.105,0,0,0,.651-1.082,1.177,1.177,0,0,0-.273-.825,2.372,2.372,0,0,0-1.052-.522c-.516-.15-1.318-.323-2.384-.515a13.454,13.454,0,0,1-4.441-1.342c.028.7.06,1.431.1,2.159Zm-12.019,1.816v3.664h9.824v-3.664h-2.361V103.113h-7.463v3.724h2.422v8.521Zm5-19.556a2.793,2.793,0,0,0,0,5.585,2.74,2.74,0,0,0,1.96-.795A2.808,2.808,0,0,0,120.3,95.8Zm179.885,66.6c-1.908,0-3.222-.387-3.905-1.15v.771h-3.694v-5.479h3.694a2.488,2.488,0,0,0,1.1,1.787,4.049,4.049,0,0,0,2.339.651,4.944,4.944,0,0,0,2.013-.311,1.106,1.106,0,0,0,.651-1.083,1.176,1.176,0,0,0-.273-.824,2.372,2.372,0,0,0-1.052-.522c-.517-.152-1.3-.32-2.384-.515a11.238,11.238,0,0,1-5.138-1.809,4.39,4.39,0,0,1,.06-6.773,6.92,6.92,0,0,1,4.291-1.241,10.2,10.2,0,0,1,3.981.771v-.56h3.618v4.662h-3.618c-.311-1.115-1.482-1.68-3.481-1.68-1.436,0-2.165.408-2.165,1.211a.838.838,0,0,0,.575.787,6.771,6.771,0,0,0,1.68.424,19.963,19.963,0,0,1,4.889,1.128,5.308,5.308,0,0,1,2.5,1.816,4.7,4.7,0,0,1,.712,2.626A4.785,4.785,0,0,1,304.856,161,7.209,7.209,0,0,1,300.186,162.4Zm-17.861,0a9,9,0,0,1-6.38-2.2,7.992,7.992,0,0,1-2.354-6.108,8.225,8.225,0,0,1,1.083-4.192,7.98,7.98,0,0,1,6.97-4,8.544,8.544,0,0,1,4.813,1.544v-1.332h3.466v6.449h-3.587a4.127,4.127,0,0,0-3.874-2.634,3.379,3.379,0,0,0-2.626,1.166A4.234,4.234,0,0,0,278.8,154a4.9,4.9,0,0,0,.991,3.156,3.232,3.232,0,0,0,2.641,1.234,4.265,4.265,0,0,0,2.271-.666,5.109,5.109,0,0,0,1.756-1.877l3.936,1.741a9.509,9.509,0,0,1-3.134,3.633A9.049,9.049,0,0,1,282.325,162.4Zm-93.848,0a10.482,10.482,0,0,1-4.655-.992,7.434,7.434,0,0,1-3.133-2.808,8.045,8.045,0,0,1-1.112-4.268,8.532,8.532,0,0,1,1.158-4.39,8.346,8.346,0,0,1,3.133-3.08,8.63,8.63,0,0,1,4.291-1.113,8.154,8.154,0,0,1,4.375,1.158,7.612,7.612,0,0,1,2.868,3.285,11.815,11.815,0,0,1,1.037,4.942H184.572a4.576,4.576,0,0,0,1.264,2.9,3.824,3.824,0,0,0,2.793,1.066,5.2,5.2,0,0,0,3.694-1.876l3.936,1.272a8.5,8.5,0,0,1-3.224,2.929A10,10,0,0,1,188.477,162.4Zm-.56-13.275a3.05,3.05,0,0,0-2.187.787,3.949,3.949,0,0,0-1.037,2.408h6.629a3.846,3.846,0,0,0-1.158-2.309A3.189,3.189,0,0,0,187.917,149.126ZM256.2,162.264a4.208,4.208,0,0,1-3.111-1.051,4.078,4.078,0,0,1-1.037-2.975v-8.4h-2.013v-3.723h2.013v-2.467l5.056-3.633v6.1h2.936v3.723h-2.936v6.948a1.8,1.8,0,0,0,.287,1.112,1.3,1.3,0,0,0,1.075.371,4.783,4.783,0,0,0,1.574-.333v3.527A10.585,10.585,0,0,1,256.2,162.264Zm-19.8,0a6.259,6.259,0,0,1-4.193-1.346,4.554,4.554,0,0,1-1.574-3.633A4.809,4.809,0,0,1,232.4,153.4a7.145,7.145,0,0,1,4.685-1.461,6.811,6.811,0,0,1,1.808.22,10.221,10.221,0,0,1,1.84.75v-1.272a2.57,2.57,0,0,0-.757-1.938,3.18,3.18,0,0,0-2.271-.726,4.037,4.037,0,0,0-2.921,1.271l-4.087-.742a6.092,6.092,0,0,1,2.853-2.815,11.055,11.055,0,0,1,4.837-.939c2.651,0,4.568.553,5.7,1.643a6.8,6.8,0,0,1,1.7,5.079v5.888h2.573v3.663h-7.628v-1.241A7.647,7.647,0,0,1,236.4,162.264Zm1.332-7.28a2.428,2.428,0,0,0-1.665.515,1.874,1.874,0,0,0-.575,1.468c0,1.416.687,2.134,2.043,2.134a5.235,5.235,0,0,0,3.194-1.634v-1.423A5.656,5.656,0,0,0,237.732,154.984Zm-84.417,7.28a4.208,4.208,0,0,1-3.111-1.051,4.077,4.077,0,0,1-1.037-2.975v-8.4h-2.013v-3.723h2.013v-2.467l5.056-3.633v6.1h2.937v3.723h-2.937v6.948a1.8,1.8,0,0,0,.287,1.112,1.3,1.3,0,0,0,1.075.371,4.793,4.793,0,0,0,1.575-.333v3.527A10.6,10.6,0,0,1,153.315,162.264Zm65.406-.241h-7.69v-9.233c0-1.688-.7-2.543-2.074-2.543a9,9,0,0,0-3.663,1.045v7.069h2.6v3.663H197.6v-3.663h2.6v-8.522h-2.6v-3.723h7.69v1.332a9.761,9.761,0,0,1,5.146-1.544,5.733,5.733,0,0,1,4.768,2.165,11.119,11.119,0,0,1,6.418-2.165,6.841,6.841,0,0,1,3.118.6,3.662,3.662,0,0,1,1.71,1.968,10.136,10.136,0,0,1,.544,3.663v6.221h2.634v3.662h-7.72v-9.4c0-1.577-.723-2.377-2.149-2.377a8.519,8.519,0,0,0-3.648,1.045v7.069h2.6v3.663Zm-50.027,0h-9.854v-3.663h2.574v-15.5h-2.574v-3.648h7.629v8.2a8.232,8.232,0,0,1,4.5-1.665,4.478,4.478,0,0,1,3.641,1.469,6.562,6.562,0,0,1,1.219,4.269v6.872h2.362v3.662h-7.447V151.729a2.146,2.146,0,0,0-.371-1.408,1.575,1.575,0,0,0-1.234-.424,5.044,5.044,0,0,0-2.664.968v7.493h2.225v3.663Zm103.324,0h-9.823v-3.663h2.422v-8.522h-2.422v-3.723h7.462v12.245h2.362v3.662ZM134.651,159.1c-1.356,0-2.043-.718-2.043-2.134a1.874,1.874,0,0,1,.575-1.468,2.428,2.428,0,0,1,1.665-.515,5.653,5.653,0,0,1,3,1.059v1.423A5.239,5.239,0,0,1,134.651,159.1Zm132.538-14.712a2.784,2.784,0,1,1,2.785-2.8,2.68,2.68,0,0,1-.824,2.006A2.743,2.743,0,0,1,267.188,144.388Zm2.878-5.073h0a2.594,2.594,0,0,0-.244-.244l14.826-31.794a2.442,2.442,0,0,0,.388.031,2.471,2.471,0,0,0,2.233-1.421,2.46,2.46,0,0,0-2.226-3.5,2.461,2.461,0,0,0-1.943,3.975l-14.792,31.723,4.54-43.753a26.083,26.083,0,0,0,8.486-6.534,26.378,26.378,0,0,0,4.434-7.472,28.962,28.962,0,0,0,1.648-6.119,21.6,21.6,0,0,0,.232-2.2l20.473,9.546a21.982,21.982,0,0,0-1.544,1.63,28.855,28.855,0,0,0-3.623,5.337,27.5,27.5,0,0,0-2.843,8.511,28.6,28.6,0,0,0,.521,11.24l-30.564,31.049ZM162.972,119.4a8.7,8.7,0,0,1-4.329-1.075,7.682,7.682,0,0,1-2.975-2.982,8.658,8.658,0,0,1-1.067-4.284,8.357,8.357,0,0,1,1.1-4.253,7.941,7.941,0,0,1,3.02-2.975,8.963,8.963,0,0,1,8.537,0,7.816,7.816,0,0,1,2.982,2.975,8.505,8.505,0,0,1,1.075,4.253,8.336,8.336,0,0,1-1.12,4.284,8.06,8.06,0,0,1-3.027,2.982A8.426,8.426,0,0,1,162.972,119.4Zm-.06-12.745a2.655,2.655,0,0,0-2.317,1.128,5.992,5.992,0,0,0-.787,3.4,5.162,5.162,0,0,0,.855,3.1,2.694,2.694,0,0,0,2.278,1.173,2.722,2.722,0,0,0,2.324-1.157,5.63,5.63,0,0,0,.84-3.323,5.286,5.286,0,0,0-.84-3.171A2.763,2.763,0,0,0,162.912,106.655Zm20.207,12.368h-9.944v-3.664H175.6v-8.521h-2.422v-3.724h7.462v1.5a7.709,7.709,0,0,1,4.662-1.71,4.393,4.393,0,0,1,3.6,1.506,7,7,0,0,1,1.226,4.473v6.478h2.392v3.663h-7.478v-9.733a3.011,3.011,0,0,0-.34-1.627,1.281,1.281,0,0,0-1.143-.507,5.049,5.049,0,0,0-2.921,1.044v7.16h2.482v3.664Zm-30.092,0H143.2v-3.664h2.422v-8.521H143.2v-3.724h7.462v12.245h2.362v3.663ZM148.2,101.388a2.766,2.766,0,1,1,1.96-.795A2.74,2.74,0,0,1,148.2,101.388ZM65.4,82.022a16,16,0,1,1,11.314-4.686A15.9,15.9,0,0,1,65.4,82.022Zm244.6-1.2a3.547,3.547,0,0,1-1.509-.336L288.22,71.033a3.579,3.579,0,0,1-1.731-4.756L313.25,78.756A3.6,3.6,0,0,1,310,80.824Zm5.668-2.034a5.085,5.085,0,0,1-2.147-.546L286.777,65.772a4.131,4.131,0,0,1-2.763-3.874,14.088,14.088,0,0,1,1.641-5.476l1.691-3.626,35.346,16.483L321,72.9a22.261,22.261,0,0,1-2.282,4.143A3.774,3.774,0,0,1,315.67,78.79Z" transform="translate(0 -48.186)" fill="url(#linear-gradient)"/>
</svg>
